<svg xmlns="http://www.w3.org/2000/svg" width="31.06" height="31.06" viewBox="0 0 31.06 31.06">
  <path id="communication" d="M29.2,25.008a9.413,9.413,0,0,0,1.861-5.625,9.808,9.808,0,0,0-4.537-8.165A11.792,11.792,0,0,0,22.64,3.554,13.788,13.788,0,0,0,13.285,0,13.788,13.788,0,0,0,3.929,3.554,11.727,11.727,0,0,0,0,12.262,11.494,11.494,0,0,0,2.37,19.257L.088,24.9A1.213,1.213,0,0,0,1.7,26.468L8.211,23.6a13.964,13.964,0,0,0,2.52.7,10.445,10.445,0,0,0,3.67,3.574,11.484,11.484,0,0,0,5.708,1.547c.03,0,.06,0,.09,0a11.547,11.547,0,0,0,4.046-.721l5.11,2.252a1.213,1.213,0,0,0,1.614-1.565Zm-2.514.256.917,2.267L24.76,26.279a1.213,1.213,0,0,0-.966-.006A9.1,9.1,0,0,1,20.25,27L20.2,27a8.917,8.917,0,0,1-6.228-2.489,14.146,14.146,0,0,0,5.711-1.495,1.213,1.213,0,0,0-1.1-2.164,11.879,11.879,0,0,1-9.918.317,1.213,1.213,0,0,0-.966.006L3.457,23.042l1.429-3.535a1.213,1.213,0,0,0-.2-1.242,9.165,9.165,0,0,1-2.259-6c0-5.424,4.871-9.836,10.859-9.836s10.859,4.412,10.859,9.836a9.125,9.125,0,0,1-1.489,4.973,1.213,1.213,0,0,0,2.036,1.321,11.639,11.639,0,0,0,1.71-4.332,7.217,7.217,0,0,1,2.233,5.16,7.081,7.081,0,0,1-1.747,4.638A1.213,1.213,0,0,0,26.685,25.264ZM14.437,18.5a1.213,1.213,0,0,1-1.213,1.213h0a1.213,1.213,0,0,1,0-2.427h0A1.213,1.213,0,0,1,14.437,18.5Zm3.4-9.09c0,.017,0,.034,0,.051A4.545,4.545,0,0,1,15.07,13.65a.961.961,0,0,0-.572.892v.078a1.213,1.213,0,1,1-2.427,0v-.078a3.383,3.383,0,0,1,2.046-3.123A2.122,2.122,0,0,0,15.408,9.5c0-.012,0-.023,0-.035a2.123,2.123,0,0,0-4.246,0,1.213,1.213,0,1,1-2.427,0,4.549,4.549,0,0,1,9.1-.051Z" transform="translate(0.001)" fill="#fff"/>
</svg>
