<svg xmlns="http://www.w3.org/2000/svg" width="21" height="19"><path d="M20.389 2.533h-5.582V1.9A1.876 1.876 0 0 0 12.961 0H8.039a1.876 1.876 0 0 0-1.846 1.9v.633H.615A.626.626 0 0 0 0 3.167V17.1A1.876 1.876 0 0 0 1.846 19h17.308A1.876 1.876 0 0 0 21 17.1V3.178a.606.606 0 0 0-.611-.645ZM7.424 1.9a.625.625 0 0 1 .615-.633h4.922a.625.625 0 0 1 .615.633v.633H7.424Zm12.107 1.9-1.91 5.9a.616.616 0 0 1-.584.433h-3.461V9.5a.624.624 0 0 0-.615-.633H8.039a.624.624 0 0 0-.615.633v.633H3.963a.616.616 0 0 1-.584-.433l-1.91-5.9Zm-7.185 6.333V11.4H8.654v-1.267ZM19.77 17.1a.625.625 0 0 1-.615.633H1.846a.625.625 0 0 1-.616-.633V7.069l.982 3.031a1.848 1.848 0 0 0 1.751 1.3h3.461v.633a.624.624 0 0 0 .615.633h4.922a.624.624 0 0 0 .615-.633V11.4h3.461a1.848 1.848 0 0 0 1.751-1.3l.982-3.031Zm0 0" fill="#2d2e33"/></svg>